<svg width="1100" height="306" viewBox="0 0 1100 306" fill="none" xmlns="http://www.w3.org/2000/svg">
<rect width="1100" height="306" rx="86" fill="white"/>
<path d="M503.622 233.04C503.622 231.504 503.886 229.98 504.414 228.468C504.966 226.932 505.758 225.564 506.79 224.364C507.846 223.14 509.13 222.156 510.642 221.412C512.154 220.668 513.87 220.296 515.79 220.296C518.07 220.296 520.026 220.812 521.658 221.844C523.29 222.876 524.502 224.22 525.294 225.876L522.738 227.532C522.354 226.716 521.886 226.032 521.334 225.48C520.806 224.928 520.218 224.484 519.57 224.148C518.946 223.812 518.298 223.572 517.626 223.428C516.954 223.284 516.294 223.212 515.646 223.212C514.23 223.212 512.97 223.512 511.866 224.112C510.786 224.688 509.874 225.456 509.13 226.416C508.386 227.352 507.822 228.42 507.438 229.62C507.078 230.796 506.898 231.984 506.898 233.184C506.898 234.528 507.114 235.812 507.546 237.036C508.002 238.236 508.626 239.304 509.418 240.24C510.21 241.176 511.146 241.92 512.226 242.472C513.306 243.024 514.482 243.3 515.754 243.3C516.426 243.3 517.11 243.216 517.806 243.048C518.526 242.88 519.21 242.616 519.858 242.256C520.506 241.872 521.106 241.404 521.658 240.852C522.234 240.276 522.702 239.592 523.062 238.8L525.762 240.276C525.354 241.236 524.778 242.088 524.034 242.832C523.314 243.552 522.486 244.164 521.55 244.668C520.638 245.172 519.666 245.556 518.634 245.82C517.602 246.084 516.594 246.216 515.61 246.216C513.858 246.216 512.25 245.832 510.786 245.064C509.322 244.296 508.05 243.3 506.97 242.076C505.914 240.828 505.086 239.424 504.486 237.864C503.91 236.28 503.622 234.672 503.622 233.04ZM541.344 246.18C539.544 246.18 537.9 245.82 536.412 245.1C534.948 244.356 533.688 243.384 532.632 242.184C531.576 240.96 530.76 239.568 530.184 238.008C529.608 236.448 529.32 234.852 529.32 233.22C529.32 231.516 529.62 229.884 530.22 228.324C530.844 226.764 531.696 225.384 532.776 224.184C533.856 222.984 535.128 222.036 536.592 221.34C538.08 220.62 539.688 220.26 541.416 220.26C543.216 220.26 544.848 220.644 546.312 221.412C547.776 222.156 549.036 223.14 550.092 224.364C551.148 225.588 551.964 226.98 552.54 228.54C553.116 230.076 553.404 231.648 553.404 233.256C553.404 234.96 553.092 236.592 552.468 238.152C551.868 239.712 551.028 241.092 549.948 242.292C548.892 243.468 547.62 244.416 546.132 245.136C544.668 245.832 543.072 246.18 541.344 246.18ZM532.596 233.22C532.596 234.516 532.8 235.776 533.208 237C533.64 238.2 534.24 239.268 535.008 240.204C535.776 241.14 536.7 241.884 537.78 242.436C538.86 242.988 540.06 243.264 541.38 243.264C542.748 243.264 543.972 242.976 545.052 242.4C546.132 241.8 547.044 241.032 547.788 240.096C548.556 239.136 549.132 238.056 549.516 236.856C549.924 235.656 550.128 234.444 550.128 233.22C550.128 231.924 549.912 230.676 549.48 229.476C549.072 228.252 548.472 227.184 547.68 226.272C546.912 225.336 545.988 224.592 544.908 224.04C543.852 223.488 542.676 223.212 541.38 223.212C540.012 223.212 538.788 223.5 537.708 224.076C536.628 224.652 535.704 225.408 534.936 226.344C534.192 227.28 533.616 228.348 533.208 229.548C532.8 230.748 532.596 231.972 532.596 233.22ZM559.346 246V220.44H568.202C570.242 220.44 572.03 220.776 573.566 221.448C575.126 222.12 576.422 223.032 577.454 224.184C578.486 225.336 579.254 226.692 579.758 228.252C580.286 229.788 580.55 231.432 580.55 233.184C580.55 235.128 580.262 236.892 579.686 238.476C579.11 240.036 578.282 241.38 577.202 242.508C576.122 243.612 574.814 244.476 573.278 245.1C571.766 245.7 570.074 246 568.202 246H559.346ZM577.274 233.184C577.274 231.744 577.07 230.424 576.662 229.224C576.278 228 575.69 226.956 574.898 226.092C574.13 225.228 573.182 224.556 572.054 224.076C570.926 223.572 569.642 223.32 568.202 223.32H562.586V243.12H568.202C569.666 243.12 570.962 242.868 572.09 242.364C573.242 241.86 574.19 241.164 574.934 240.276C575.702 239.388 576.278 238.344 576.662 237.144C577.07 235.92 577.274 234.6 577.274 233.184ZM603.907 243.12V246H586.555V220.44H603.583V223.32H589.795V231.6H601.783V234.3H589.795V243.12H603.907ZM609.396 248.916L610.116 245.712H609.036V241.968H612.024V245.712L610.944 248.916H609.396ZM627.715 233.04C627.715 231.504 627.979 229.98 628.507 228.468C629.059 226.932 629.851 225.564 630.883 224.364C631.939 223.14 633.223 222.156 634.735 221.412C636.247 220.668 637.963 220.296 639.883 220.296C642.163 220.296 644.119 220.812 645.751 221.844C647.383 222.876 648.595 224.22 649.387 225.876L646.831 227.532C646.447 226.716 645.979 226.032 645.427 225.48C644.899 224.928 644.311 224.484 643.663 224.148C643.039 223.812 642.391 223.572 641.719 223.428C641.047 223.284 640.387 223.212 639.739 223.212C638.323 223.212 637.063 223.512 635.959 224.112C634.879 224.688 633.967 225.456 633.223 226.416C632.479 227.352 631.915 228.42 631.531 229.62C631.171 230.796 630.991 231.984 630.991 233.184C630.991 234.528 631.207 235.812 631.639 237.036C632.095 238.236 632.719 239.304 633.511 240.24C634.303 241.176 635.239 241.92 636.319 242.472C637.399 243.024 638.575 243.3 639.847 243.3C640.519 243.3 641.203 243.216 641.899 243.048C642.619 242.88 643.303 242.616 643.951 242.256C644.599 241.872 645.199 241.404 645.751 240.852C646.327 240.276 646.795 239.592 647.155 238.8L649.855 240.276C649.447 241.236 648.871 242.088 648.127 242.832C647.407 243.552 646.579 244.164 645.643 244.668C644.731 245.172 643.759 245.556 642.727 245.82C641.695 246.084 640.687 246.216 639.703 246.216C637.951 246.216 636.343 245.832 634.879 245.064C633.415 244.296 632.143 243.3 631.063 242.076C630.007 240.828 629.179 239.424 628.579 237.864C628.003 236.28 627.715 234.672 627.715 233.04ZM665.862 243.264C667.35 243.264 668.586 242.976 669.57 242.4C670.554 241.824 671.334 241.08 671.91 240.168C672.51 239.232 672.93 238.176 673.17 237C673.41 235.8 673.53 234.588 673.53 233.364V220.44H676.77V233.364C676.77 235.092 676.566 236.736 676.158 238.296C675.774 239.832 675.15 241.188 674.286 242.364C673.422 243.54 672.294 244.476 670.902 245.172C669.534 245.844 667.866 246.18 665.898 246.18C663.858 246.18 662.142 245.82 660.75 245.1C659.358 244.38 658.23 243.432 657.366 242.256C656.526 241.056 655.914 239.688 655.53 238.152C655.17 236.592 654.99 234.996 654.99 233.364V220.44H658.23V233.364C658.23 234.636 658.35 235.872 658.59 237.072C658.854 238.248 659.274 239.292 659.85 240.204C660.45 241.116 661.23 241.86 662.19 242.436C663.174 242.988 664.398 243.264 665.862 243.264ZM683.966 246V220.44H687.206V243.12H701.462V246H683.966ZM720.924 223.32H712.104V246H708.864V223.32H700.044V220.44H720.924V223.32ZM736.557 243.264C738.045 243.264 739.281 242.976 740.265 242.4C741.249 241.824 742.029 241.08 742.605 240.168C743.205 239.232 743.625 238.176 743.865 237C744.105 235.8 744.225 234.588 744.225 233.364V220.44H747.465V233.364C747.465 235.092 747.261 236.736 746.853 238.296C746.469 239.832 745.845 241.188 744.981 242.364C744.117 243.54 742.989 244.476 741.597 245.172C740.229 245.844 738.561 246.18 736.593 246.18C734.553 246.18 732.837 245.82 731.445 245.1C730.053 244.38 728.925 243.432 728.061 242.256C727.221 241.056 726.609 239.688 726.225 238.152C725.865 236.592 725.685 234.996 725.685 233.364V220.44H728.925V233.364C728.925 234.636 729.045 235.872 729.285 237.072C729.549 238.248 729.969 239.292 730.545 240.204C731.145 241.116 731.925 241.86 732.885 242.436C733.869 242.988 735.093 243.264 736.557 243.264ZM754.661 246V220.44H765.605C766.733 220.44 767.765 220.68 768.701 221.16C769.661 221.616 770.477 222.24 771.149 223.032C771.845 223.8 772.385 224.676 772.769 225.66C773.153 226.62 773.345 227.604 773.345 228.612C773.345 229.5 773.213 230.364 772.949 231.204C772.709 232.02 772.349 232.764 771.869 233.436C771.413 234.108 770.849 234.684 770.177 235.164C769.529 235.644 768.797 235.992 767.981 236.208L774.173 246H770.501L764.669 236.82H757.901V246H754.661ZM757.901 233.94H765.641C766.313 233.94 766.913 233.796 767.441 233.508C767.993 233.22 768.461 232.836 768.845 232.356C769.229 231.852 769.529 231.276 769.745 230.628C769.961 229.98 770.069 229.308 770.069 228.612C770.069 227.892 769.937 227.22 769.673 226.596C769.433 225.948 769.097 225.384 768.665 224.904C768.257 224.4 767.765 224.016 767.189 223.752C766.637 223.464 766.049 223.32 765.425 223.32H757.901V233.94ZM797.113 243.12V246H779.761V220.44H796.789V223.32H783.001V231.6H794.989V234.3H783.001V243.12H797.113ZM802.602 248.916L803.322 245.712H802.242V241.968H805.23V245.712L804.15 248.916H802.602ZM820.921 233.04C820.921 231.504 821.185 229.98 821.713 228.468C822.265 226.932 823.057 225.564 824.089 224.364C825.145 223.14 826.429 222.156 827.941 221.412C829.453 220.668 831.169 220.296 833.089 220.296C835.369 220.296 837.325 220.812 838.957 221.844C840.589 222.876 841.801 224.22 842.593 225.876L840.037 227.532C839.653 226.716 839.185 226.032 838.633 225.48C838.105 224.928 837.517 224.484 836.869 224.148C836.245 223.812 835.597 223.572 834.925 223.428C834.253 223.284 833.593 223.212 832.945 223.212C831.529 223.212 830.269 223.512 829.165 224.112C828.085 224.688 827.173 225.456 826.429 226.416C825.685 227.352 825.121 228.42 824.737 229.62C824.377 230.796 824.197 231.984 824.197 233.184C824.197 234.528 824.413 235.812 824.845 237.036C825.301 238.236 825.925 239.304 826.717 240.24C827.509 241.176 828.445 241.92 829.525 242.472C830.605 243.024 831.781 243.3 833.053 243.3C833.725 243.3 834.409 243.216 835.105 243.048C835.825 242.88 836.509 242.616 837.157 242.256C837.805 241.872 838.405 241.404 838.957 240.852C839.533 240.276 840.001 239.592 840.361 238.8L843.061 240.276C842.653 241.236 842.077 242.088 841.333 242.832C840.613 243.552 839.785 244.164 838.849 244.668C837.937 245.172 836.965 245.556 835.933 245.82C834.901 246.084 833.893 246.216 832.909 246.216C831.157 246.216 829.549 245.832 828.085 245.064C826.621 244.296 825.349 243.3 824.269 242.076C823.213 240.828 822.385 239.424 821.785 237.864C821.209 236.28 820.921 234.672 820.921 233.04ZM858.643 246.18C856.843 246.18 855.199 245.82 853.711 245.1C852.247 244.356 850.987 243.384 849.931 242.184C848.875 240.96 848.059 239.568 847.483 238.008C846.907 236.448 846.619 234.852 846.619 233.22C846.619 231.516 846.919 229.884 847.519 228.324C848.143 226.764 848.995 225.384 850.075 224.184C851.155 222.984 852.427 222.036 853.891 221.34C855.379 220.62 856.987 220.26 858.715 220.26C860.515 220.26 862.147 220.644 863.611 221.412C865.075 222.156 866.335 223.14 867.391 224.364C868.447 225.588 869.263 226.98 869.839 228.54C870.415 230.076 870.703 231.648 870.703 233.256C870.703 234.96 870.391 236.592 869.767 238.152C869.167 239.712 868.327 241.092 867.247 242.292C866.191 243.468 864.919 244.416 863.431 245.136C861.967 245.832 860.371 246.18 858.643 246.18ZM849.895 233.22C849.895 234.516 850.099 235.776 850.507 237C850.939 238.2 851.539 239.268 852.307 240.204C853.075 241.14 853.999 241.884 855.079 242.436C856.159 242.988 857.359 243.264 858.679 243.264C860.047 243.264 861.271 242.976 862.351 242.4C863.431 241.8 864.343 241.032 865.087 240.096C865.855 239.136 866.431 238.056 866.815 236.856C867.223 235.656 867.427 234.444 867.427 233.22C867.427 231.924 867.211 230.676 866.779 229.476C866.371 228.252 865.771 227.184 864.979 226.272C864.211 225.336 863.287 224.592 862.207 224.04C861.151 223.488 859.975 223.212 858.679 223.212C857.311 223.212 856.087 223.5 855.007 224.076C853.927 224.652 853.003 225.408 852.235 226.344C851.491 227.28 850.915 228.348 850.507 229.548C850.099 230.748 849.895 231.972 849.895 233.22ZM898.749 246V226.236L890.253 241.392H888.417L879.885 226.236V246H876.645V220.44H880.065L889.317 237.036L898.605 220.44H901.989V246H898.749ZM931.654 246V226.236L923.158 241.392H921.322L912.79 226.236V246H909.55V220.44H912.97L922.222 237.036L931.51 220.44H934.894V246H931.654ZM952.966 243.264C954.454 243.264 955.69 242.976 956.674 242.4C957.658 241.824 958.438 241.08 959.014 240.168C959.614 239.232 960.034 238.176 960.274 237C960.514 235.8 960.634 234.588 960.634 233.364V220.44H963.874V233.364C963.874 235.092 963.67 236.736 963.262 238.296C962.878 239.832 962.254 241.188 961.39 242.364C960.526 243.54 959.398 244.476 958.006 245.172C956.638 245.844 954.97 246.18 953.002 246.18C950.962 246.18 949.246 245.82 947.854 245.1C946.462 244.38 945.334 243.432 944.47 242.256C943.63 241.056 943.018 239.688 942.634 238.152C942.274 236.592 942.094 234.996 942.094 233.364V220.44H945.334V233.364C945.334 234.636 945.454 235.872 945.694 237.072C945.958 238.248 946.378 239.292 946.954 240.204C947.554 241.116 948.334 241.86 949.294 242.436C950.278 242.988 951.502 243.264 952.966 243.264ZM974.31 226.488V246H971.07V220.44H973.59L989.43 240.348V220.476H992.67V246H989.934L974.31 226.488ZM1000.21 246V220.44H1003.45V246H1000.21ZM1029.44 223.32H1020.62V246H1017.38V223.32H1008.56V220.44H1029.44V223.32ZM1035.53 220.44L1043.27 233.76L1051.08 220.44H1054.61L1044.89 236.676V246H1041.65V236.604L1031.97 220.44H1035.53ZM1055.81 246V241.968H1058.47V246H1055.81Z" fill="black"/>
<rect x="501" y="257" width="560" height="8" fill="#FFC700"/>
<path d="M573.8 133V74.7L547.9 119.8H543.8L517.9 74.7V133H510.9V62H518.1L545.8 110.6L573.7 62H580.8V133H573.8ZM597.095 133V62H604.095V133H597.095ZM627.4 75V133H620.4V62H625.8L672.8 121.1V62.1H679.8V133H673.7L627.4 75ZM724.746 133.5C719.813 133.5 715.279 132.5 711.146 130.5C707.079 128.433 703.579 125.733 700.646 122.4C697.713 119 695.446 115.133 693.846 110.8C692.246 106.467 691.446 102.033 691.446 97.5C691.446 92.7667 692.279 88.2333 693.946 83.9C695.679 79.5667 698.046 75.7333 701.046 72.4C704.046 69.0667 707.579 66.4333 711.646 64.5C715.713 62.5 720.113 61.5 724.846 61.5C729.779 61.5 734.279 62.5667 738.346 64.7C742.479 66.7667 745.979 69.5 748.846 72.9C751.779 76.3 754.046 80.1667 755.646 84.5C757.246 88.7667 758.046 93.1333 758.046 97.6C758.046 102.333 757.179 106.867 755.446 111.2C753.779 115.533 751.446 119.367 748.446 122.7C745.513 125.967 742.013 128.6 737.946 130.6C733.879 132.533 729.479 133.5 724.746 133.5ZM698.446 97.5C698.446 101.367 699.079 105.1 700.346 108.7C701.613 112.233 703.413 115.4 705.746 118.2C708.079 120.933 710.846 123.133 714.046 124.8C717.246 126.4 720.813 127.2 724.746 127.2C728.746 127.2 732.379 126.333 735.646 124.6C738.913 122.867 741.679 120.6 743.946 117.8C746.213 115 747.946 111.833 749.146 108.3C750.413 104.767 751.046 101.167 751.046 97.5C751.046 93.6333 750.379 89.9333 749.046 86.4C747.779 82.8 745.979 79.6333 743.646 76.9C741.313 74.1667 738.546 72 735.346 70.4C732.146 68.7333 728.613 67.9 724.746 67.9C720.746 67.9 717.113 68.7667 713.846 70.5C710.579 72.1667 707.813 74.4 705.546 77.2C703.279 80 701.513 83.1667 700.246 86.7C699.046 90.2333 698.446 93.8333 698.446 97.5ZM769.744 133V62H799.744C802.81 62 805.61 62.6667 808.144 64C810.744 65.2667 812.977 66.9667 814.844 69.1C816.71 71.1667 818.144 73.5333 819.144 76.2C820.21 78.8667 820.744 81.5667 820.744 84.3C820.744 86.9 820.344 89.4 819.544 91.8C818.81 94.1333 817.744 96.2667 816.344 98.2C815.01 100.067 813.377 101.667 811.444 103C809.51 104.267 807.344 105.133 804.944 105.6L822.344 133H814.444L797.744 106.8H776.744V133H769.744ZM776.744 100.6H799.944C802.01 100.6 803.877 100.167 805.544 99.3C807.277 98.3667 808.744 97.1333 809.944 95.6C811.144 94.0667 812.077 92.3333 812.744 90.4C813.41 88.4667 813.744 86.4333 813.744 84.3C813.744 82.1667 813.344 80.1333 812.544 78.2C811.81 76.2 810.777 74.4667 809.444 73C808.177 71.5333 806.644 70.3667 804.844 69.5C803.11 68.6333 801.277 68.2 799.344 68.2H776.744V100.6ZM833.576 133V62H840.576V133H833.576ZM907.28 68.2H881.98V133H874.98V68.2H849.68V62H907.28V68.2ZM916.816 62L940.016 100.2L963.416 62H971.016L943.516 106.6V133H936.516V106.4L909.116 62H916.816Z" fill="#211274"/>
<path d="M509.387 192V133.07H533.789C536.334 133.07 538.658 133.623 540.761 134.73C542.919 135.781 544.773 137.192 546.322 138.963C547.871 140.678 549.089 142.643 549.974 144.856C550.859 147.069 551.302 149.31 551.302 151.579C551.302 154.014 550.887 156.365 550.057 158.634C549.227 160.847 548.065 162.812 546.571 164.527C545.077 166.242 543.279 167.626 541.176 168.677C539.129 169.728 536.832 170.254 534.287 170.254H515.197V192H509.387ZM515.197 165.108H534.038C535.753 165.108 537.303 164.748 538.686 164.029C540.125 163.254 541.342 162.258 542.338 161.041C543.334 159.768 544.109 158.33 544.662 156.725C545.215 155.065 545.492 153.35 545.492 151.579C545.492 149.753 545.16 148.038 544.496 146.433C543.887 144.773 543.03 143.334 541.923 142.117C540.872 140.9 539.599 139.959 538.105 139.295C536.666 138.576 535.145 138.216 533.54 138.216H515.197V165.108ZM580.192 153.737C576.374 153.848 573.054 154.899 570.232 156.891C567.41 158.883 565.418 161.622 564.256 165.108V192H558.612V148.757H563.924V159.132C565.529 155.812 567.687 153.211 570.398 151.33C573.109 149.449 576.014 148.508 579.113 148.508C579.556 148.508 579.915 148.536 580.192 148.591V153.737ZM602.703 192.83C599.549 192.83 596.672 192.249 594.071 191.087C591.47 189.87 589.202 188.237 587.265 186.19C585.384 184.143 583.917 181.763 582.866 179.052C581.815 176.341 581.289 173.491 581.289 170.503C581.289 167.46 581.815 164.582 582.866 161.871C583.973 159.16 585.467 156.78 587.348 154.733C589.285 152.686 591.553 151.053 594.154 149.836C596.755 148.619 599.604 148.01 602.703 148.01C605.802 148.01 608.651 148.619 611.252 149.836C613.908 151.053 616.177 152.686 618.058 154.733C619.995 156.78 621.489 159.16 622.54 161.871C623.647 164.582 624.2 167.46 624.2 170.503C624.2 173.491 623.674 176.341 622.623 179.052C621.572 181.763 620.078 184.143 618.141 186.19C616.26 188.237 613.991 189.87 611.335 191.087C608.734 192.249 605.857 192.83 602.703 192.83ZM587.016 170.586C587.016 173.021 587.431 175.289 588.261 177.392C589.091 179.439 590.198 181.265 591.581 182.87C593.02 184.419 594.68 185.637 596.561 186.522C598.498 187.407 600.545 187.85 602.703 187.85C604.861 187.85 606.881 187.407 608.762 186.522C610.699 185.581 612.386 184.336 613.825 182.787C615.264 181.182 616.398 179.329 617.228 177.226C618.058 175.123 618.473 172.855 618.473 170.42C618.473 168.041 618.058 165.8 617.228 163.697C616.398 161.539 615.264 159.685 613.825 158.136C612.386 156.531 610.699 155.286 608.762 154.401C606.881 153.46 604.861 152.99 602.703 152.99C600.545 152.99 598.525 153.46 596.644 154.401C594.763 155.286 593.103 156.531 591.664 158.136C590.225 159.741 589.091 161.622 588.261 163.78C587.431 165.883 587.016 168.151 587.016 170.586ZM649.741 192.581C646.753 192.581 644.014 191.972 641.524 190.755C639.09 189.482 636.959 187.822 635.133 185.775C633.363 183.728 631.979 181.376 630.983 178.72C629.987 176.064 629.489 173.325 629.489 170.503C629.489 167.515 629.96 164.665 630.9 161.954C631.896 159.187 633.28 156.78 635.05 154.733C636.821 152.686 638.924 151.053 641.358 149.836C643.848 148.619 646.587 148.01 649.575 148.01C653.283 148.01 656.492 148.951 659.203 150.832C661.915 152.658 664.239 154.982 666.175 157.804V148.757H671.238V192.166C671.238 195.154 670.657 197.782 669.495 200.051C668.389 202.375 666.867 204.312 664.93 205.861C663.049 207.41 660.808 208.572 658.207 209.347C655.662 210.122 652.951 210.509 650.073 210.509C645.093 210.509 641.082 209.624 638.038 207.853C634.995 206.082 632.533 203.703 630.651 200.715L634.137 197.976C635.853 200.743 638.121 202.762 640.943 204.035C643.765 205.363 646.809 206.027 650.073 206.027C652.176 206.027 654.168 205.723 656.049 205.114C657.931 204.561 659.563 203.703 660.946 202.541C662.385 201.434 663.519 199.996 664.349 198.225C665.179 196.51 665.594 194.49 665.594 192.166V183.617C663.934 186.384 661.666 188.569 658.788 190.174C655.911 191.779 652.895 192.581 649.741 192.581ZM651.318 187.85C652.978 187.85 654.611 187.546 656.215 186.937C657.82 186.328 659.259 185.526 660.531 184.53C661.859 183.479 662.966 182.317 663.851 181.044C664.737 179.771 665.318 178.471 665.594 177.143V163.78C664.986 162.231 664.156 160.792 663.104 159.464C662.053 158.136 660.863 157.002 659.535 156.061C658.207 155.12 656.769 154.373 655.219 153.82C653.725 153.267 652.204 152.99 650.654 152.99C648.22 152.99 646.034 153.516 644.097 154.567C642.216 155.563 640.611 156.891 639.283 158.551C637.955 160.211 636.932 162.092 636.212 164.195C635.548 166.298 635.216 168.428 635.216 170.586C635.216 172.91 635.631 175.123 636.461 177.226C637.291 179.329 638.426 181.182 639.864 182.787C641.358 184.336 643.074 185.581 645.01 186.522C646.947 187.407 649.05 187.85 651.318 187.85ZM704.037 153.737C700.219 153.848 696.899 154.899 694.077 156.891C691.255 158.883 689.263 161.622 688.101 165.108V192H682.457V148.757H687.769V159.132C689.374 155.812 691.532 153.211 694.243 151.33C696.954 149.449 699.859 148.508 702.958 148.508C703.401 148.508 703.76 148.536 704.037 148.591V153.737ZM720.616 192.83C718.569 192.83 716.66 192.498 714.889 191.834C713.174 191.115 711.652 190.146 710.324 188.929C709.051 187.712 708.055 186.301 707.336 184.696C706.617 183.036 706.257 181.265 706.257 179.384C706.257 177.503 706.7 175.76 707.585 174.155C708.47 172.55 709.715 171.167 711.32 170.005C712.925 168.843 714.834 167.958 717.047 167.349C719.26 166.685 721.695 166.353 724.351 166.353C726.564 166.353 728.805 166.547 731.074 166.934C733.343 167.321 735.362 167.875 737.133 168.594V164.693C737.133 160.875 736.054 157.859 733.896 155.646C731.738 153.377 728.75 152.243 724.932 152.243C722.719 152.243 720.45 152.686 718.126 153.571C715.802 154.456 713.45 155.729 711.071 157.389L709.079 153.654C714.668 149.891 720.09 148.01 725.347 148.01C730.77 148.01 735.03 149.532 738.129 152.575C741.228 155.618 742.777 159.824 742.777 165.191V184.696C742.777 186.245 743.469 187.02 744.852 187.02V192C743.911 192.166 743.192 192.249 742.694 192.249C741.255 192.249 740.121 191.889 739.291 191.17C738.516 190.451 738.101 189.455 738.046 188.182L737.88 184.779C735.888 187.38 733.37 189.372 730.327 190.755C727.339 192.138 724.102 192.83 720.616 192.83ZM721.944 188.514C724.877 188.514 727.56 187.961 729.995 186.854C732.485 185.747 734.366 184.281 735.639 182.455C736.137 181.957 736.497 181.431 736.718 180.878C736.995 180.269 737.133 179.716 737.133 179.218V172.163C735.252 171.444 733.287 170.89 731.24 170.503C729.248 170.116 727.201 169.922 725.098 169.922C721.114 169.922 717.877 170.752 715.387 172.412C712.897 174.072 711.652 176.258 711.652 178.969C711.652 180.297 711.901 181.542 712.399 182.704C712.952 183.866 713.672 184.89 714.557 185.775C715.498 186.605 716.604 187.269 717.877 187.767C719.15 188.265 720.505 188.514 721.944 188.514ZM818.052 192H812.408V167.847C812.408 162.812 811.605 159.104 810.001 156.725C808.396 154.346 806.017 153.156 802.863 153.156C801.203 153.156 799.626 153.46 798.132 154.069C796.693 154.678 795.337 155.535 794.065 156.642C792.847 157.749 791.768 159.077 790.828 160.626C789.887 162.12 789.168 163.78 788.67 165.606V192H783.026V167.847C783.026 162.701 782.251 158.966 780.702 156.642C779.152 154.318 776.773 153.156 773.564 153.156C770.299 153.156 767.394 154.29 764.849 156.559C762.303 158.828 760.477 161.816 759.371 165.523V192H753.727V148.757H758.873V158.551C760.643 155.231 762.967 152.658 765.845 150.832C768.722 148.951 771.904 148.01 775.39 148.01C779.042 148.01 781.947 149.034 784.105 151.081C786.318 153.128 787.674 155.812 788.172 159.132C792.211 151.717 797.772 148.01 804.855 148.01C807.289 148.01 809.337 148.453 810.997 149.338C812.712 150.223 814.068 151.496 815.064 153.156C816.115 154.761 816.862 156.725 817.305 159.049C817.803 161.318 818.052 163.863 818.052 166.685V192ZM893.079 192H887.435V167.847C887.435 162.812 886.633 159.104 885.028 156.725C883.423 154.346 881.044 153.156 877.89 153.156C876.23 153.156 874.653 153.46 873.159 154.069C871.72 154.678 870.365 155.535 869.092 156.642C867.875 157.749 866.796 159.077 865.855 160.626C864.914 162.12 864.195 163.78 863.697 165.606V192H858.053V167.847C858.053 162.701 857.278 158.966 855.729 156.642C854.18 154.318 851.8 153.156 848.591 153.156C845.326 153.156 842.421 154.29 839.876 156.559C837.331 158.828 835.505 161.816 834.398 165.523V192H828.754V148.757H833.9V158.551C835.671 155.231 837.995 152.658 840.872 150.832C843.749 148.951 846.931 148.01 850.417 148.01C854.069 148.01 856.974 149.034 859.132 151.081C861.345 153.128 862.701 155.812 863.199 159.132C867.238 151.717 872.799 148.01 879.882 148.01C882.317 148.01 884.364 148.453 886.024 149.338C887.739 150.223 889.095 151.496 890.091 153.156C891.142 154.761 891.889 156.725 892.332 159.049C892.83 161.318 893.079 163.863 893.079 166.685V192ZM922.457 192.83C919.303 192.83 916.398 192.249 913.742 191.087C911.141 189.87 908.872 188.237 906.936 186.19C904.999 184.087 903.477 181.68 902.371 178.969C901.319 176.258 900.794 173.353 900.794 170.254C900.794 167.211 901.319 164.361 902.371 161.705C903.477 158.994 904.971 156.642 906.853 154.65C908.789 152.603 911.086 150.998 913.742 149.836C916.398 148.619 919.275 148.01 922.374 148.01C925.528 148.01 928.405 148.619 931.006 149.836C933.662 150.998 935.93 152.603 937.812 154.65C939.693 156.697 941.159 159.049 942.211 161.705C943.262 164.361 943.788 167.183 943.788 170.171C943.788 170.614 943.788 171.056 943.788 171.499C943.788 171.942 943.76 172.246 943.705 172.412H906.687C906.853 174.736 907.378 176.894 908.264 178.886C909.204 180.823 910.394 182.51 911.833 183.949C913.271 185.388 914.904 186.522 916.73 187.352C918.611 188.127 920.603 188.514 922.706 188.514C924.089 188.514 925.472 188.32 926.856 187.933C928.239 187.546 929.512 187.02 930.674 186.356C931.836 185.692 932.887 184.89 933.828 183.949C934.768 182.953 935.488 181.874 935.986 180.712L940.883 182.04C940.219 183.645 939.278 185.111 938.061 186.439C936.843 187.712 935.432 188.846 933.828 189.842C932.223 190.783 930.452 191.502 928.516 192C926.579 192.553 924.559 192.83 922.457 192.83ZM938.393 168.096C938.227 165.772 937.673 163.669 936.733 161.788C935.847 159.851 934.685 158.191 933.247 156.808C931.863 155.425 930.231 154.346 928.35 153.571C926.524 152.796 924.559 152.409 922.457 152.409C920.354 152.409 918.362 152.796 916.481 153.571C914.599 154.346 912.939 155.425 911.501 156.808C910.117 158.191 908.983 159.851 908.098 161.788C907.268 163.725 906.77 165.827 906.604 168.096H938.393ZM972.83 153.737C969.012 153.848 965.692 154.899 962.87 156.891C960.048 158.883 958.056 161.622 956.894 165.108V192H951.25V148.757H956.562V159.132C958.167 155.812 960.325 153.211 963.036 151.33C965.748 149.449 968.653 148.508 971.751 148.508C972.194 148.508 972.554 148.536 972.83 148.591V153.737ZM993.463 192.83C990.088 192.83 986.795 192.277 983.586 191.17C980.377 190.063 977.61 188.459 975.286 186.356L977.859 182.538C980.294 184.53 982.756 186.024 985.246 187.02C987.791 188.016 990.503 188.514 993.38 188.514C996.866 188.514 999.633 187.822 1001.68 186.439C1003.78 185 1004.83 182.981 1004.83 180.38C1004.83 179.163 1004.56 178.167 1004 177.392C1003.45 176.562 1002.62 175.843 1001.51 175.234C1000.46 174.625 999.107 174.1 997.447 173.657C995.842 173.159 993.961 172.661 991.803 172.163C989.313 171.554 987.155 170.946 985.329 170.337C983.503 169.728 981.981 169.037 980.764 168.262C979.602 167.487 978.717 166.547 978.108 165.44C977.555 164.278 977.278 162.839 977.278 161.124C977.278 158.966 977.693 157.057 978.523 155.397C979.408 153.737 980.57 152.381 982.009 151.33C983.503 150.223 985.218 149.393 987.155 148.84C989.147 148.287 991.25 148.01 993.463 148.01C996.783 148.01 999.799 148.563 1002.51 149.67C1005.22 150.721 1007.41 152.132 1009.07 153.903L1006.33 157.223C1004.72 155.563 1002.76 154.318 1000.44 153.488C998.166 152.658 995.787 152.243 993.297 152.243C991.803 152.243 990.42 152.409 989.147 152.741C987.874 153.018 986.74 153.488 985.744 154.152C984.803 154.816 984.056 155.674 983.503 156.725C982.95 157.721 982.673 158.911 982.673 160.294C982.673 161.456 982.867 162.397 983.254 163.116C983.641 163.835 984.278 164.472 985.163 165.025C986.048 165.523 987.155 165.993 988.483 166.436C989.866 166.823 991.526 167.238 993.463 167.681C996.23 168.345 998.664 169.009 1000.77 169.673C1002.87 170.337 1004.61 171.112 1006 171.997C1007.43 172.882 1008.51 173.961 1009.23 175.234C1009.95 176.507 1010.31 178.056 1010.31 179.882C1010.31 183.866 1008.79 187.02 1005.75 189.344C1002.7 191.668 998.609 192.83 993.463 192.83Z" fill="black"/>
<path fill-rule="evenodd" clip-rule="evenodd" d="M288.901 35.7373H52L52.0002 35.7376V188.379L151.748 252.649V100.007L151.748 100.007H388.649L288.901 35.7373Z" fill="url(#paint0_linear)"/>
<path fill-rule="evenodd" clip-rule="evenodd" d="M237.861 253.999L474.762 254L375.014 189.73L138.113 189.73L237.861 253.999ZM375.014 189.729L375.014 37.0881L474.762 101.358L474.762 253.999L375.014 189.729Z" fill="url(#paint1_linear)"/>
<path fill-rule="evenodd" clip-rule="evenodd" d="M366.259 183.64L366.259 31L466.007 95.27L466.007 247.906L466.013 247.909H466.007V247.911L466.004 247.909L229.111 247.909L129.364 183.64L366.259 183.64Z" fill="#FFC700"/>
<path d="M373 54L373 180.667L455 234L455 107.333L373 54Z" fill="url(#paint2_linear)"/>
<defs>
<linearGradient id="paint0_linear" x1="288.901" y1="35.7373" x2="226.79" y2="272.348" gradientUnits="userSpaceOnUse">
<stop stop-color="#151371"/>
<stop offset="0.0001" stop-color="#151371"/>
<stop offset="1" stop-color="#FF00B8"/>
</linearGradient>
<linearGradient id="paint1_linear" x1="237.861" y1="253.999" x2="299.972" y2="17.3893" gradientUnits="userSpaceOnUse">
<stop stop-color="#151371"/>
<stop offset="0.0001" stop-color="#151371"/>
<stop offset="1" stop-color="#FF00B8"/>
</linearGradient>
<linearGradient id="paint2_linear" x1="373" y1="144" x2="455" y2="144" gradientUnits="userSpaceOnUse">
<stop stop-color="#34107A"/>
<stop offset="1" stop-color="#D503AB"/>
</linearGradient>
</defs>
</svg>
