<svg width="487" height="257" viewBox="0 0 487 257" fill="none" xmlns="http://www.w3.org/2000/svg">
<path fill-rule="evenodd" clip-rule="evenodd" d="M272.353 5.44727H0L4.29153e-05 5.44736V180.931L114.675 254.819V79.3353L114.675 79.3352H387.029L272.353 5.44727Z" fill="url(#paint0_linear)"/>
<path fill-rule="evenodd" clip-rule="evenodd" d="M213.675 256.372L486.029 256.372L486.029 256.372L486.029 80.8879L371.354 6.99997L371.354 182.484L371.354 182.484L99.0001 182.484L213.675 256.372Z" fill="url(#paint1_linear)"/>
<path fill-rule="evenodd" clip-rule="evenodd" d="M203.616 249.372L475.97 249.372L475.962 249.367L475.962 73.8879L361.287 -1.52588e-05L361.287 175.484L361.287 175.484L88.9411 175.484L203.616 249.372Z" fill="#FFC700"/>
<path d="M235.927 148V120.016L223.495 141.664H221.527L209.095 120.016V148H205.735V113.92H209.191L222.487 137.248L235.879 113.92H239.287V148H235.927ZM249.749 148V113.92H263.861C265.333 113.92 266.677 114.24 267.893 114.88C269.141 115.488 270.213 116.304 271.109 117.328C272.005 118.32 272.709 119.456 273.221 120.736C273.733 122.016 273.989 123.312 273.989 124.624C273.989 126.032 273.749 127.392 273.269 128.704C272.789 129.984 272.117 131.12 271.253 132.112C270.389 133.104 269.349 133.904 268.133 134.512C266.949 135.12 265.621 135.424 264.149 135.424H253.109V148H249.749ZM253.109 132.448H264.005C264.997 132.448 265.893 132.24 266.693 131.824C267.525 131.376 268.229 130.8 268.805 130.096C269.381 129.36 269.829 128.528 270.149 127.6C270.469 126.64 270.629 125.648 270.629 124.624C270.629 123.568 270.437 122.576 270.053 121.648C269.701 120.688 269.205 119.856 268.565 119.152C267.957 118.448 267.221 117.904 266.357 117.52C265.525 117.104 264.645 116.896 263.717 116.896H253.109V132.448ZM289.932 113.92H292.764L306.924 148H303.372L298.956 137.344H283.644L279.276 148H275.676L289.932 113.92ZM298.188 134.704L291.324 117.856L284.364 134.704H298.188Z" fill="black"/>
<path d="M369 27L369 171.963L464 233L464 88.037L369 27Z" fill="url(#paint2_linear)"/>
<defs>
<linearGradient id="paint0_linear" x1="272.353" y1="5.44726" x2="200.948" y2="277.466" gradientUnits="userSpaceOnUse">
<stop stop-color="#151371"/>
<stop offset="0.0001" stop-color="#151371"/>
<stop offset="1" stop-color="#FF00B8"/>
</linearGradient>
<linearGradient id="paint1_linear" x1="213.675" y1="256.372" x2="285.081" y2="-15.6468" gradientUnits="userSpaceOnUse">
<stop stop-color="#151371"/>
<stop offset="0.0001" stop-color="#151371"/>
<stop offset="1" stop-color="#FF00B8"/>
</linearGradient>
<linearGradient id="paint2_linear" x1="369" y1="130" x2="464" y2="130" gradientUnits="userSpaceOnUse">
<stop stop-color="#34107A"/>
<stop offset="1" stop-color="#D503AB"/>
</linearGradient>
</defs>
</svg>
